<?xml version="1.0" encoding="utf-8"?>
<!-- Generator: Adobe Illustrator 26.5.3, SVG Export Plug-In . SVG Version: 6.00 Build 0)  -->
<svg version="1.1" id="Layer_1" xmlns="http://www.w3.org/2000/svg" xmlns:xlink="http://www.w3.org/1999/xlink" x="0px" y="0px"
	 viewBox="0 0 329.2 82.1" style="enable-background:new 0 0 329.2 82.1;" xml:space="preserve">
<style type="text/css">
	.st0{fill:#93A7B0;}
	.st1{fill:#CFD8DD;}
	.st2{fill:#FFFFFF;stroke:#FFFFFF;stroke-width:3.0303;stroke-miterlimit:10;}
	.st3{fill:#FFFFFF;}
</style>
<g>
	<g>
		<g>
			<rect x="238.4" y="19.6" class="st0" width="4.6" height="43.3"/>
			<path d="M244,63.9h-6.6V18.6h6.6V63.9z M239.4,61.9h2.6V20.6h-2.6V61.9z"/>
		</g>
		<g>
			<circle class="st1" cx="295.4" cy="41.3" r="32.8"/>
			<path d="M295.4,75.1c-18.6,0-33.8-15.2-33.8-33.8s15.2-33.8,33.8-33.8c18.6,0,33.8,15.2,33.8,33.8S314.1,75.1,295.4,75.1z
				 M295.4,9.5c-17.5,0-31.8,14.3-31.8,31.8s14.3,31.8,31.8,31.8c17.5,0,31.8-14.3,31.8-31.8S312.9,9.5,295.4,9.5z"/>
		</g>
		<g>
			<path class="st0" d="M253.2,21.2H201V7.6h52.3c3.7,0,6.8,3,6.8,6.8v0C260,18.1,257,21.2,253.2,21.2z"/>
			<path d="M253.2,22.2H200V6.6h53.3c4.3,0,7.8,3.5,7.8,7.8C261,18.7,257.5,22.2,253.2,22.2z M202,20.1h51.3c3.2,0,5.8-2.6,5.8-5.8
				c0-3.2-2.6-5.8-5.8-5.8H202V20.1z"/>
		</g>
		<g>
			<path class="st0" d="M253.2,76.2H201V62.7h52.3c3.7,0,6.8,3,6.8,6.8v0C260,73.2,257,76.2,253.2,76.2z"/>
			<path d="M253.2,77.2H200V61.7h53.3c4.3,0,7.8,3.5,7.8,7.8C261,73.8,257.5,77.2,253.2,77.2z M202,75.2h51.3c3.2,0,5.8-2.6,5.8-5.8
				c0-3.2-2.6-5.8-5.8-5.8H202V75.2z"/>
		</g>
		<g>
			<path class="st0" d="M227.1,48c2.7,0.8,5.4,1.2,8.2,1.4l60.1,3.7c6.5,0,11.8-5.3,11.8-11.8v0c0-6.5-5.3-11.8-11.8-11.8l-59.3,3.6
				c-3.3,0.2-6.5,0.8-9.7,1.9l-13.3,4.4c-1,0.3-1.6,1.2-1.6,2.3v0c0,1.1,0.7,2,1.7,2.3L227.1,48z"/>
			<path d="M295.4,54.1l-60.2-3.7c-2.8-0.2-5.7-0.7-8.4-1.5h0l-13.9-4c-1.4-0.4-2.4-1.8-2.4-3.2c0-1.5,0.9-2.7,2.3-3.2l13.3-4.4
				c3.2-1.1,6.6-1.7,9.9-1.9l59.3-3.6c0,0,0,0,0,0c7.1,0,12.9,5.7,12.9,12.8C308.2,48.3,302.5,54.1,295.4,54.1z M227.4,47
				c2.6,0.8,5.3,1.2,8,1.4l60.1,3.7c5.9,0,10.7-4.8,10.7-10.8s-4.8-10.8-10.8-10.8l-59.3,3.6c-3.2,0.2-6.4,0.8-9.4,1.8l-13.3,4.4
				c-0.6,0.2-0.9,0.7-0.9,1.3c0,0.6,0.4,1.1,1,1.3L227.4,47z"/>
		</g>
	</g>
	<g>
		<path class="st2" d="M2,7h7.8l9.6,22.8l2.2,5.5l1.7-5.5l3.5-8.3L20.5,7h7.4l2.6,6.9L32.9,7h7.4l-6.4,14.5l3.6,8.5l2.2,5.3l1.7-5.4
			L51,7h7.8L43.2,42.3h-7.1l-3.1-7l-2.6-6.8l-2.6,6.8l-3.2,7h-7.1L2,7z"/>
		<path class="st2" d="M76.3,7h7.6L101,42.3h-7.5l-2.8-5.9H70l-2.7,5.9h-7.5L76.3,7z M87.8,30.5l-7.6-16l-7.4,16H87.8z"/>
		<path class="st2" d="M106.5,7h18c2.7,0,5.1,0.3,7.1,0.8c2,0.6,3.6,1.4,4.9,2.5c1.3,1.1,2.3,2.4,2.9,3.9s1,3.3,1,5.2
			c0,1.3-0.2,2.6-0.5,3.7c-0.3,1.2-0.8,2.3-1.5,3.3s-1.5,1.9-2.5,2.7c-1,0.8-2.2,1.4-3.5,1.9l7.7,11.3h-8.8l-6.6-10h-0.2l-10.8,0
			v10.1h-7.2V7z M124.6,26.1c1.4,0,2.5-0.2,3.6-0.5c1-0.3,1.9-0.8,2.6-1.3c0.7-0.6,1.2-1.3,1.5-2.1s0.5-1.7,0.5-2.7
			c0-2-0.7-3.5-2-4.6c-1.4-1.1-3.4-1.6-6.1-1.6h-11v12.8H124.6z"/>
		<path class="st2" d="M148.8,7h18.6c2.7,0,5.1,0.3,7.1,0.9c2,0.6,3.6,1.4,4.9,2.5c1.3,1.1,2.3,2.5,2.9,4.1c0.6,1.6,1,3.4,1,5.4
			c0,1.9-0.3,3.6-0.9,5.2c-0.6,1.6-1.6,3-2.9,4.1c-1.3,1.2-2.9,2.1-4.9,2.7s-4.3,1-7.1,1l-11.5,0v9.4h-7.2V7z M167.6,26.8
			c1.4,0,2.5-0.2,3.6-0.5c1-0.3,1.9-0.8,2.6-1.4c0.7-0.6,1.2-1.3,1.5-2.2c0.3-0.9,0.5-1.8,0.5-2.8c0-2.1-0.7-3.7-2-4.9
			c-1.4-1.2-3.4-1.8-6.1-1.8H156v13.5H167.6z"/>
	</g>
	<g>
		<path class="st3" d="M5.4,49.7h12.3c1.9,0,3.5,0.2,4.8,0.6s2.5,0.9,3.4,1.7c0.9,0.7,1.6,1.6,2,2.7c0.4,1.1,0.7,2.2,0.7,3.6
			c0,0.9-0.1,1.7-0.3,2.6c-0.2,0.8-0.5,1.6-1,2.2c-0.4,0.7-1,1.3-1.7,1.8c-0.7,0.5-1.5,1-2.4,1.3l5.3,7.7h-6L17.9,67h-0.1l-7.4,0
			v6.9H5.4V49.7z M17.9,62.8c0.9,0,1.7-0.1,2.4-0.3c0.7-0.2,1.3-0.5,1.7-0.9c0.5-0.4,0.8-0.9,1.1-1.4c0.2-0.6,0.3-1.2,0.3-1.9
			c0-1.4-0.5-2.4-1.4-3.1c-0.9-0.7-2.3-1.1-4.2-1.1h-7.5v8.8H17.9z"/>
		<path class="st3" d="M33,64.7c0-1.2,0.3-2.4,0.8-3.5c0.5-1.1,1.2-2.1,2.2-3c0.9-0.9,2.1-1.6,3.5-2.1s2.9-0.8,4.7-0.8
			c1.7,0,3.3,0.3,4.7,0.8c1.4,0.5,2.6,1.2,3.6,2.1c1,0.9,1.7,2,2.2,3.2c0.5,1.2,0.8,2.5,0.8,3.9c0,0.2,0,0.4,0,0.6
			c0,0.2,0,0.4,0,0.5H38.1c0.2,0.5,0.5,1,1,1.5c0.4,0.5,1,0.8,1.6,1.2c0.7,0.3,1.4,0.6,2.3,0.8c0.9,0.2,1.8,0.3,2.9,0.3
			s2.1-0.1,3.1-0.3c1-0.2,2-0.5,3-0.8l1.5,3.5c-0.6,0.3-1.2,0.5-1.8,0.7c-0.6,0.2-1.3,0.4-1.9,0.5c-0.7,0.1-1.4,0.2-2.1,0.3
			s-1.5,0.1-2.3,0.1c-2.1,0-3.8-0.2-5.4-0.7c-1.5-0.5-2.8-1.2-3.9-2c-1-0.9-1.8-1.9-2.3-3C33.2,67.3,33,66,33,64.7z M50.5,62.9
			c-0.2-0.5-0.4-1-0.8-1.4c-0.3-0.4-0.8-0.8-1.3-1.1c-0.5-0.3-1.1-0.6-1.8-0.8c-0.7-0.2-1.4-0.3-2.2-0.3c-0.9,0-1.7,0.1-2.4,0.3
			c-0.7,0.2-1.3,0.5-1.9,0.8c-0.5,0.3-1,0.7-1.3,1.1c-0.4,0.4-0.6,0.9-0.8,1.4H50.5z"/>
		<path class="st3" d="M57.8,55.6h5.3l4.7,11l1.2,3.1l1.2-3.1l4.7-11h5.3l-8.6,18.3h-5.3L57.8,55.6z"/>
		<path class="st3" d="M85.9,53.2c-0.5,0-0.9-0.1-1.2-0.2c-0.4-0.1-0.7-0.3-0.9-0.5s-0.5-0.5-0.6-0.8c-0.1-0.3-0.2-0.6-0.2-0.9
			c0-0.3,0.1-0.7,0.2-1c0.1-0.3,0.3-0.5,0.6-0.8s0.6-0.4,0.9-0.5c0.4-0.1,0.8-0.2,1.2-0.2c0.5,0,0.9,0.1,1.2,0.2
			c0.4,0.1,0.7,0.3,0.9,0.5c0.3,0.2,0.5,0.5,0.6,0.8c0.1,0.3,0.2,0.6,0.2,1c0,0.3-0.1,0.6-0.2,0.9c-0.1,0.3-0.3,0.6-0.6,0.8
			c-0.3,0.2-0.6,0.4-0.9,0.5C86.8,53.1,86.4,53.2,85.9,53.2z M83.7,55.7h4.6v18.2h-4.6V55.7z"/>
		<path class="st3" d="M93.2,64.7c0-1.2,0.3-2.4,0.8-3.5c0.5-1.1,1.2-2.1,2.2-3c0.9-0.9,2.1-1.6,3.5-2.1s2.9-0.8,4.7-0.8
			c1.7,0,3.3,0.3,4.7,0.8c1.4,0.5,2.6,1.2,3.6,2.1c1,0.9,1.7,2,2.2,3.2c0.5,1.2,0.8,2.5,0.8,3.9c0,0.2,0,0.4,0,0.6
			c0,0.2,0,0.4,0,0.5H98.3c0.2,0.5,0.5,1,1,1.5c0.4,0.5,1,0.8,1.6,1.2c0.7,0.3,1.4,0.6,2.3,0.8c0.9,0.2,1.8,0.3,2.9,0.3
			s2.1-0.1,3.1-0.3c1-0.2,2-0.5,3-0.8l1.5,3.5c-0.6,0.3-1.2,0.5-1.8,0.7c-0.6,0.2-1.3,0.4-1.9,0.5c-0.7,0.1-1.4,0.2-2.1,0.3
			s-1.5,0.1-2.3,0.1c-2.1,0-3.8-0.2-5.4-0.7c-1.5-0.5-2.8-1.2-3.9-2c-1-0.9-1.8-1.9-2.3-3C93.5,67.3,93.2,66,93.2,64.7z M110.8,62.9
			c-0.2-0.5-0.4-1-0.8-1.4c-0.3-0.4-0.8-0.8-1.3-1.1c-0.5-0.3-1.1-0.6-1.8-0.8c-0.7-0.2-1.4-0.3-2.2-0.3c-0.9,0-1.7,0.1-2.4,0.3
			c-0.7,0.2-1.3,0.5-1.9,0.8c-0.5,0.3-1,0.7-1.3,1.1c-0.4,0.4-0.6,0.9-0.8,1.4H110.8z"/>
		<path class="st3" d="M118,55.6h5.3l4.7,11l1.4,3.1l1.7-4l-4.5-10.1h4.5l2.2,5.4l2.2-5.4h4.5l-4.5,10.1l1.7,4l1.4-3.1l4.7-11h5.3
			L140,73.9h-5l-1.7-3.5l-1.7,3.5h-5L118,55.6z"/>
		<path class="st3" d="M152.5,68.3c1.2,0.7,2.6,1.3,4.1,1.6c1.5,0.4,3,0.5,4.6,0.5c1.1,0,1.9-0.1,2.6-0.2c0.7-0.1,1.3-0.3,1.7-0.6
			c0.4-0.2,0.7-0.5,0.9-0.8c0.2-0.3,0.3-0.6,0.3-0.9c0-0.4-0.2-0.8-0.6-1.1c-0.4-0.3-1-0.5-1.9-0.5c-0.4,0-0.8,0-1.3,0.1
			s-1,0.1-1.5,0.2c-0.5,0.1-1,0.1-1.6,0.2c-0.6,0.1-1.1,0.1-1.7,0.1c-1.2,0-2.3-0.1-3.2-0.4c-0.9-0.3-1.6-0.6-2.1-1.1
			c-0.5-0.5-0.9-1-1.2-1.6s-0.4-1.3-0.4-2c0-0.9,0.2-1.8,0.6-2.6s1.1-1.5,1.9-2c0.8-0.6,1.8-1,2.9-1.3c1.1-0.3,2.4-0.5,3.8-0.5
			c0.7,0,1.5,0,2.3,0.1s1.6,0.2,2.4,0.3c0.8,0.1,1.5,0.3,2.2,0.5c0.7,0.2,1.3,0.4,1.9,0.6l-1.4,3.6c-1.2-0.4-2.3-0.8-3.5-1
			c-1.2-0.3-2.4-0.4-3.6-0.4c-0.9,0-1.6,0.1-2.2,0.2s-1.1,0.3-1.4,0.5s-0.6,0.5-0.8,0.7s-0.3,0.6-0.3,0.9c0,0.2,0,0.4,0.1,0.6
			c0.1,0.2,0.2,0.3,0.4,0.5s0.5,0.2,0.8,0.3c0.3,0.1,0.7,0.1,1.2,0.1c0.4,0,0.9,0,1.4-0.1c0.5-0.1,1-0.1,1.5-0.2
			c0.5-0.1,1.1-0.1,1.6-0.2s1.1-0.1,1.7-0.1c1.1,0,2,0.1,2.9,0.4s1.5,0.6,2,1.1s0.9,1,1.2,1.6c0.3,0.6,0.4,1.3,0.4,2.1
			c0,1-0.2,1.8-0.7,2.7c-0.4,0.8-1.1,1.5-2,2.1c-0.9,0.6-2,1.1-3.3,1.4c-1.3,0.3-2.8,0.5-4.5,0.5c-1.1,0-2.1-0.1-3-0.2
			c-1-0.1-1.9-0.3-2.8-0.5s-1.7-0.5-2.5-0.8s-1.5-0.6-2.1-1L152.5,68.3z"/>
	</g>
</g>
</svg>
