<?xml version="1.0" encoding="utf-8"?>
<!-- Generator: Adobe Illustrator 26.5.3, SVG Export Plug-In . SVG Version: 6.00 Build 0)  -->
<svg version="1.1" id="Layer_1" xmlns="http://www.w3.org/2000/svg" xmlns:xlink="http://www.w3.org/1999/xlink" x="0px" y="0px"
	 viewBox="0 0 498.2 357.2" style="enable-background:new 0 0 498.2 357.2;" xml:space="preserve">
<style type="text/css">
	.st0{fill:#93A7B0;}
	.st1{fill:#CFD8DD;}
</style>
<g>
	<g>
		
			<rect x="173" y="105.9" transform="matrix(0.953 -0.3028 0.3028 0.953 -47.6853 63.6726)" class="st0" width="16.9" height="159.4"/>
		<path d="M195.1,268.8l-50.5-159l23.2-7.4l50.5,159L195.1,268.8z M153.9,114.6l46,144.9l9.1-2.9l-46-144.9L153.9,114.6z"/>
	</g>
	<g>
		<circle class="st1" cx="373.7" cy="124.5" r="120.8"/>
		<path d="M373.6,249.1c-19.6,0-39.1-4.7-57.1-14c-29.5-15.3-51.3-41.2-61.4-72.8c-10.1-31.7-7.2-65.4,8.1-94.9
			c15.3-29.5,41.2-51.3,72.8-61.4c31.7-10.1,65.4-7.2,94.9,8.1c29.5,15.3,51.3,41.2,61.4,72.8l0,0c10.1,31.7,7.2,65.4-8.1,94.9
			c-15.3,29.5-41.2,51.3-72.8,61.4C399,247.1,386.2,249.1,373.6,249.1z M373.8,7.4c-11.9,0-23.9,1.8-35.6,5.6
			c-29.8,9.5-54.1,30-68.5,57.8c-14.4,27.8-17.1,59.5-7.6,89.3c9.5,29.8,30,54.1,57.8,68.5c27.8,14.4,59.5,17.1,89.3,7.6
			c29.8-9.5,54.1-30,68.5-57.8c14.4-27.8,17.1-59.5,7.6-89.3l0,0c-9.5-29.8-30-54.1-57.8-68.5C410.6,11.8,392.3,7.4,373.8,7.4z"/>
	</g>
	<g>
		<path class="st0" d="M203.2,100.9L19.7,159.2L4.6,111.7l183.4-58.3c13.1-4.2,27.1,3.1,31.3,16.2l0,0
			C223.6,82.7,216.3,96.8,203.2,100.9z"/>
		<path d="M17.3,163.9L0,109.3l187-59.4c15-4.8,31.2,3.6,35.9,18.6c4.8,15-3.6,31.2-18.6,35.9L17.3,163.9z M9.3,114.1l12.9,40.4
			l179.9-57.2c11.2-3.5,17.3-15.5,13.8-26.6c-3.5-11.2-15.5-17.3-26.6-13.8L9.3,114.1z"/>
	</g>
	<g>
		<path class="st0" d="M264.6,294.3L81.2,352.6l-15.1-47.5l183.4-58.3c13.1-4.2,27.1,3.1,31.3,16.2v0
			C285,276.1,277.8,290.1,264.6,294.3z"/>
		<path d="M78.8,357.2l-17.3-54.6l187-59.4c7.3-2.3,15-1.7,21.8,1.9c6.8,3.5,11.8,9.5,14.1,16.8c2.3,7.3,1.7,15-1.9,21.8
			c-3.5,6.8-9.5,11.8-16.8,14.1L78.8,357.2z M70.7,307.5l12.9,40.4l179.9-57.2c5.4-1.7,9.8-5.4,12.4-10.5c2.6-5,3.1-10.8,1.4-16.2
			c-1.7-5.4-5.4-9.8-10.5-12.4c-5-2.6-10.8-3.1-16.2-1.4L70.7,307.5z"/>
	</g>
	<g>
		<path class="st0" d="M141.4,224.2c10.3-0.3,20.5-1.7,30.4-4.2l215-54.1c22.9-7.3,35.5-31.7,28.3-54.6l0,0
			c-7.3-22.9-31.7-35.5-54.6-28.3L156.4,162c-11.3,4.4-22.1,10.2-31.9,17.4l-41.9,30.5c-3,2.2-4.3,6.1-3.2,9.7v0
			c1.2,3.7,4.7,6.2,8.6,6.1L141.4,224.2z"/>
		<path d="M87.8,229.4c-5.4,0-10.2-3.5-11.9-8.7c-1.6-5.1,0.2-10.7,4.5-13.8l41.9-30.5c10.1-7.3,21.1-13.3,32.7-17.8l204.2-78.9
			l0.1,0c24.8-7.9,51.4,5.9,59.3,30.7c7.9,24.8-5.9,51.4-30.7,59.3l-0.2,0.1l-215,54.1c-10.2,2.6-20.7,4-31.2,4.3h0l-53.4,1.4
			C88,229.4,87.9,229.4,87.8,229.4z M361.8,86.6l-204,78.9c-11,4.3-21.5,10-31,16.9l-41.9,30.5c-1.8,1.3-2.5,3.5-1.8,5.6
			c0.7,2.1,2.7,3.6,4.9,3.5l53.4-1.4c10-0.3,19.9-1.6,29.6-4.1l214.9-54.1c20.8-6.7,32.4-29.1,25.8-49.9
			c-3.2-10.1-10.2-18.4-19.6-23.3C382.6,84.3,371.9,83.4,361.8,86.6z"/>
	</g>
</g>
</svg>
